<?xml version="1.0" encoding="UTF-8"?>
<svg id="Layer_1" data-name="Layer 1" xmlns="http://www.w3.org/2000/svg" width="537.8818127067" height="552.2611060293" viewBox="0 0 537.8818127067 552.2611060293">
  <path d="m534.4711797909,199.9587679142c-7.552734375-27.2033691406-34.1252441406-52.0379638672-63.2119140625-50.2645874023,2.7352294922-17.9577026367,1.5208740234-36.2770996094-4.9919433594-54.2076416016-5.3303222656-14.3216552734-14.7056884766-27.5842285156-27.2766113281-37.0527954102-22.1010742188-17.5693969727-58.1984863281-22.0415649414-80.6875-3.5070800781-8.3425292969-16.1367797852-20.0932617188-30.2446289062-35.90234375-40.9231567383C309.6705206112,5.550076508,294.2900274471.3311434025,278.5545538143.0599031681c-28.2071533203-1.2232055664-60.0390625,16.376159668-67.3389892578,44.5894165039-16.2329101562-8.1497802734-34.0302734375-12.655456543-53.0948486328-12.0022583008-15.2679443359.643737793-30.7784423828,5.4619140625-43.6683349609,14.4915771484-23.5367431641,15.5886230469-38.9440917969,48.5324707031-28.2724609375,75.6467895508-17.9245605469,2.9477539062-34.9729003906,9.7637939453-50.0139160156,21.4990844727-11.9735107422,9.4949951172-21.6898193359,22.5099487305-26.8103027344,37.3914794922-9.8796386719,26.4481201172-2.9787597656,62.1598510742,21.5968017578,77.8212280273-12.7711181641,12.9216918945-22.5589599609,28.458190918-27.830078125,46.7954101562-4.1058349609,14.7194824219-4.3165283203,30.9598999023.2882080078,46.0090942383,7.5532226562,27.2048950195,34.1282958984,52.0406494141,63.216796875,50.2641601562-2.7354736328,17.9583740234-1.5212402344,36.278503418,4.9916992188,54.209777832,5.3303222656,14.3216552734,14.7058105469,27.5842895508,27.2766113281,37.0528564453,22.1013183594,17.5694580078,58.1989746094,22.0415649414,80.6879882812,3.506652832,8.3425292969,16.1364746094,20.0930175781,30.2440795898,35.9018554688,40.9224243164,12.7303466797,8.4533691406,28.1108398438,13.6723022461,43.8463134766,13.9436035156,28.2064208984,1.2232055664,60.0374755859-16.3751220703,67.3385009766-44.587097168,16.2336425781,8.1507568359,34.0319824219,12.6569824219,53.0979003906,12.0037841797,15.2678222656-.643737793,30.7783203125-5.4619140625,43.6682128906-14.4915771484,23.5385742188-15.58984375,38.9462890625-48.5375366211,28.2698974609-75.6530151367,17.9246826172-2.9478149414,34.9730224609-9.7637329102,50.0140380859-21.4990844727,11.9735107422-9.4949951172,21.6898193359-22.5099487305,26.8103027344-37.3914794922,9.8798828125-26.4487304688,2.9783935547-62.1614990234-21.5986328125-77.8223266602,12.7697753906-12.921081543,22.5563964844-28.4566650391,27.8272705078-46.7925415039,4.1058349609-14.7194824219,4.3165283203-30.9598999023-.2882080078-46.0090942383Zm-35.26953125,73.6051635742c-33.2386474609,38.3399047852-91.5751953125,54.6401977539-141.4772949219,52.8195800781-11.1481933594-.7489624023-12.4694824219,15.7035522461-1.4250488281,16.8336181641,43.0908203125,2.2880859375,95.1684570312-8.5833740234,132.7022705078-35.2841796875.1995849609.0749511719.3889160156.1575927734.5977783203.225402832,9.2133789062,2.7240600586,16.6960449219,11.3370361328,20.2326660156,21.9739990234,11.7819824219,35.9885864258-17.3822021484,71.1558227539-53.0988769531,79.2672729492-49.4262695312,11.48046875-106.2026367188-9.6217651367-145.5042724609-40.4264526367-8.5787353516-7.1585693359-19.3182373047,5.3751220703-11.0473632812,12.7811279297,33.5172119141,27.1799316406,82.0405273438,48.9956054688,128.1013183594,49.4550170898.1168212891.1771240234.2210693359.3544921875.3494873047.53125,5.8526611328,7.6193237305,6.84375,18.9855957031,3.4526367188,29.6698608398-11.6217041016,36.0405883789-55.8868408203,47.3492431641-89.5500488281,32.9177856445-46.7348632812-19.7641601562-80.2641601562-70.2084960938-93.9533691406-118.2308959961-2.7326660156-10.8339233398-18.7882080078-7.0065307617-16.4500732422,3.8466186523,11.1401367188,41.6904296875,37.5738525391,87.8615722656,74.5684814453,115.3070068359-.0095214844.2116088867-.0294189453.4158935547-.0294189453.633972168.2563476562,9.604309082-5.6228027344,19.3822631836-14.6462402344,26.0328369141-30.5863037109,22.3263549805-73.0445556641,5.4568481445-91.7961425781-26.0051879883-26.1921386719-43.4595336914-23.6676025391-103.9779663086-6.5155029297-150.8751831055,4.1572265625-10.3710327148-11.0816650391-16.7117919922-15.5693359375-6.5571289062-15.4923095703,40.2757568359-21.2457275391,93.1654052734-7.44921875,137.1137695312-.1328125.1665649414-.2697753906.3210449219-.3988037109.4985961914-5.4378662109,7.920715332-15.9415283203,12.3756103516-27.1507568359,12.4522094727-37.8679199219.0841674805-62.3017578125-38.5198974609-58.9792480469-74.9951171875,4.3551025391-50.5548095703,41.9693603516-98.0313720703,83.4111328125-125.8902587891,9.4592285156-5.9467773438.8576660156-20.0338134766-8.7416992188-14.4562988281-36.2067871094,23.4776000977-71.9490966797,62.8843383789-86.6197509766,106.5485229492-.2054443359.056640625-.4073486328.1011352539-.6160888672.1690063477-9.0549316406,3.211730957-20.1711425781.6419067383-29.2846679688-5.884765625-30.6853027344-22.1901245117-27.76171875-67.7832641602-3.6340332031-95.3393554688,33.2386474609-38.3399658203,91.5751953125-54.6401977539,141.4772949219-52.8195800781,11.1481933594.7489013672,12.4694824219-15.7035522461,1.4250488281-16.8336791992-43.0895996094-2.2880249023-95.1655273438,8.5827636719-132.6989746094,35.2819213867-.19921875-.0747680664-.3880615234-.1571655273-.5964355469-.2248535156-9.2133789062-2.7240600586-16.6960449219-11.3370361328-20.2326660156-21.9739990234-11.7819824219-35.9885864258,17.3822021484-71.1558227539,53.0988769531-79.2672729492,49.4263916016-11.48046875,106.2026367188,9.6217651367,145.5042724609,40.4264526367,8.5787353516,7.1585693359,19.318359375-5.3751220703,11.0474853516-12.7811279297-33.5177001953-27.1802368164-82.0417480469-48.99609375-128.1030273438-49.4550170898-.1157226562-.1750488281-.2185058594-.3503417969-.3454589844-.5250244141-5.8526611328-7.6193237305-6.8436279297-18.9855957031-3.4526367188-29.6698608398,11.6218261719-36.0405883789,55.8868408203-47.3492431641,89.5500488281-32.9177856445,46.7348632812,19.7641601562,80.2641601562,70.2084960938,93.9533691406,118.2308959961,2.7326660156,10.8339233398,18.7882080078,7.0065307617,16.4500732422-3.8466186523-11.1403808594-41.69140625-37.5750732422-87.8637084961-74.5709228516-115.3088989258.0095214844-.2122192383.0295410156-.417175293.0295410156-.6359863281-.2564697266-9.6042480469,5.6228027344-19.3822631836,14.6461181641-26.0328369141,30.5863037109-22.3263549805,73.0445556641-5.4568481445,91.7962646484,26.0051879883,26.1921386719,43.4595336914,23.6674804688,103.9780273438,6.5153808594,150.8751831055-4.1572265625,10.3710327148,11.0816650391,16.7117919922,15.5693359375,6.5571289062,15.4921875-40.2755126953,21.2456054688-93.1647338867,7.4494628906-137.1129150391.1326904297-.1664428711.2697753906-.3208618164.3985595703-.4982910156,5.4378662109-7.920715332,15.9415283203-12.3755493164,27.1507568359-12.4521484375,37.8679199219-.0842285156,62.3017578125,38.5198364258,58.9792480469,74.9950561523-4.3549804688,50.5548706055-41.9692382812,98.0314331055-83.4111328125,125.8902587891-9.4592285156,5.9468383789-.8576660156,20.0338134766,8.7416992188,14.4562988281,36.2077636719-23.4782104492,71.9510498047-62.8863525391,86.6209716797-106.5518798828.2034912109-.0562133789.4034423828-.1002197266.6102294922-.1674194336,9.0549316406-3.2116699219,20.1711425781-.6418457031,29.2846679688,5.884765625,30.6853027344,22.1901855469,27.76171875,67.7833251953,3.6340332031,95.3394165039Z"/>
  <circle cx="240.2741583065" cy="240.4888582463" r="16.3649597168"/>
  <circle cx="295.3991277889" cy="240.4888582463" r="16.3648923613" transform="translate(-69.5451325571 131.3503110708) rotate(-22.4999740348)"/>
  <path d="m268.9409063534,308.7913484806c-22.0284423828,0-39.9447021484-14.9438476562-39.9447021484-33.3134765625h-19.3458251953c0,29.0375366211,26.6004638672,52.6592407227,59.2905273438,52.6592407227s59.2905273438-23.6217041016,59.2905273438-52.6592407227h-19.3458251953c0,18.3696289062-17.9162597656,33.3134765625-39.9447021484,33.3134765625Z"/>
</svg>