<?xml version="1.0" encoding="utf-8"?>
<!-- Generator: Adobe Illustrator 27.8.0, SVG Export Plug-In . SVG Version: 6.00 Build 0)  -->
<svg version="1.1" id="Layer_1" xmlns="http://www.w3.org/2000/svg" xmlns:xlink="http://www.w3.org/1999/xlink" x="0px" y="0px"
	 viewBox="0 0 537.9 552.3" style="enable-background:new 0 0 537.9 552.3;" xml:space="preserve">
<style type="text/css">
	.st0{fill:#EFEBEB;}
	.st1{stroke:#000000;stroke-width:15;stroke-miterlimit:10;}
	.st2{stroke:#000000;stroke-width:13.9995;stroke-miterlimit:9.9996;}
	.st3{stroke:#000000;stroke-width:14;stroke-miterlimit:10;}
	.st4{stroke:#000000;stroke-width:10;stroke-miterlimit:10;}
	.st5{fill:none;stroke:#000000;stroke-width:20;stroke-miterlimit:10;}
</style>
<circle class="st0" cx="268.9" cy="276.1" r="237.3"/>
<path class="st1" d="M522,203.5c-7.2-25.9-32.5-49.6-60.2-47.9c2.6-17.1,1.4-34.6-4.8-51.7c-5.1-13.6-14-26.3-26-35.3
	c-21.1-16.7-55.5-21-76.9-3.3c-8-15.4-19.1-28.8-34.2-39c-12.1-8.1-26.8-13-41.8-13.3c-26.9-1.2-57.2,15.6-64.2,42.5
	c-15.5-7.8-32.4-12.1-50.6-11.4c-14.6,0.6-29.3,5.2-41.6,13.8C99.3,72.8,84.6,104.2,94.8,130c-17.1,2.8-33.3,9.3-47.7,20.5
	c-11.4,9-20.7,21.5-25.5,35.6c-9.4,25.2-2.8,59.2,20.6,74.2c-12.2,12.3-21.5,27.1-26.5,44.6c-3.9,14-4.1,29.5,0.3,43.8
	c7.2,25.9,32.5,49.6,60.2,47.9c-2.6,17.1-1.4,34.6,4.8,51.7c5.1,13.6,14,26.3,26,35.3c21.1,16.7,55.5,21,76.9,3.3
	c8,15.4,19.1,28.8,34.2,39c12.1,8.1,26.8,13,41.8,13.3c26.9,1.2,57.2-15.6,64.2-42.5c15.5,7.8,32.4,12.1,50.6,11.4
	c14.5-0.6,29.3-5.2,41.6-13.8c22.4-14.9,37.1-46.3,26.9-72.1c17.1-2.8,33.3-9.3,47.7-20.5c11.4-9,20.7-21.5,25.5-35.6
	c9.4-25.2,2.8-59.2-20.6-74.2c12.2-12.3,21.5-27.1,26.5-44.6C526.2,233.4,526.4,217.9,522,203.5L522,203.5z M488.4,273.7
	c-31.7,36.5-87.3,52.1-134.8,50.3c-10.6-0.7-11.9,15-1.4,16c41.1,2.2,90.7-8.2,126.5-33.6c0.2,0.1,0.4,0.2,0.6,0.2
	c8.8,2.6,15.9,10.8,19.3,20.9c11.2,34.3-16.6,67.8-50.6,75.5c-47.1,10.9-101.2-9.2-138.7-38.5c-8.2-6.8-18.4,5.1-10.5,12.2
	c31.9,25.9,78.2,46.7,122.1,47.1c0.1,0.2,0.2,0.3,0.3,0.5c5.6,7.3,6.5,18.1,3.3,28.3c-11.1,34.3-53.3,45.1-85.3,31.4
	c-44.5-18.8-76.5-66.9-89.5-112.7c-2.6-10.3-17.9-6.7-15.7,3.7c10.6,39.7,35.8,83.7,71.1,109.9c0,0.2,0,0.4,0,0.6
	c0.2,9.2-5.4,18.5-14,24.8c-29.1,21.3-69.6,5.2-87.5-24.8c-25-41.4-22.6-99.1-6.2-143.8c4-9.9-10.6-15.9-14.8-6.2
	c-14.8,38.4-20.2,88.8-7.1,130.7c-0.1,0.2-0.3,0.3-0.4,0.5c-5.2,7.5-15.2,11.8-25.9,11.9c-36.1,0.1-59.4-36.7-56.2-71.5
	c4.2-48.2,40-93.4,79.5-120c9-5.7,0.8-19.1-8.3-13.8c-34.5,22.4-68.6,59.9-82.5,101.5c-0.2,0.1-0.4,0.1-0.6,0.2
	c-8.6,3.1-19.2,0.6-27.9-5.6c-29.2-21.1-26.5-64.6-3.5-90.9c31.7-36.5,87.3-52.1,134.8-50.3c10.6,0.7,11.9-15,1.4-16
	c-41.1-2.2-90.7,8.2-126.5,33.6c-0.2-0.1-0.4-0.1-0.6-0.2c-8.8-2.6-15.9-10.8-19.3-20.9c-11.2-34.3,16.6-67.8,50.6-75.5
	c47.1-10.9,101.2,9.2,138.7,38.5c8.2,6.8,18.4-5.1,10.5-12.2c-31.9-25.9-78.2-46.7-122.1-47.1c-0.1-0.2-0.2-0.3-0.3-0.5
	c-5.6-7.3-6.5-18.1-3.3-28.3c11.1-34.3,53.3-45.1,85.3-31.4c44.5,18.8,76.5,66.9,89.5,112.7c2.6,10.3,17.9,6.7,15.7-3.7
	c-10.6-39.7-35.8-83.7-71.1-109.9c0-0.2,0-0.4,0-0.6c-0.2-9.2,5.4-18.5,14-24.8c29.1-21.3,69.6-5.2,87.5,24.8
	c25,41.4,22.6,99.1,6.2,143.8c-4,9.9,10.6,15.9,14.8,6.2c14.8-38.4,20.2-88.8,7.1-130.7c0.1-0.2,0.3-0.3,0.4-0.5
	c5.2-7.5,15.2-11.8,25.9-11.9c36.1-0.1,59.4,36.7,56.2,71.5c-4.2,48.2-40,93.4-79.5,120c-9,5.7-0.8,19.1,8.3,13.8
	c34.5-22.4,68.6-59.9,82.5-101.5c0.2-0.1,0.4-0.1,0.6-0.2c8.6-3.1,19.2-0.6,27.9,5.6C514.2,204,511.4,247.4,488.4,273.7L488.4,273.7
	z"/>
<g>
	<ellipse class="st2" cx="235" cy="257.5" rx="16.4" ry="16.4"/>
	<circle class="st3" cx="303.1" cy="259.4" r="16.4"/>
	<path class="st4" d="M269.1,327.2c-18.9,0-34.2-12.8-34.2-28.6h-16.6c0,24.9,22.8,45.1,50.8,45.1s50.8-20.2,50.8-45.1h-16.6
		C303.3,314.4,288,327.2,269.1,327.2z"/>
	<polyline class="st5" points="340.2,233.4 311.9,233.4 269.1,258.4 219.1,233.4 193.1,233.4 	"/>
</g>
</svg>
